<svg xmlns="http://www.w3.org/2000/svg" width="36" height="36" viewBox="0 0 36 36">
    <g id="prefix__hide_icon" transform="translate(-291 -355)">
        <path id="prefix__hide_icon-2" d="M4.964 9.962a.758.758 0 0 1-.077-.055.765.765 0 0 1 .077-.072l2.105-1.446a.174.174 0 0 1 .234 0A3.406 3.406 0 0 0 12.6 5.964a7.773 7.773 0 0 0 0-1.173c0-.074.007-.184.053-.215.977-.679 1.959-1.35 2.955-2.031a15.916 15.916 0 0 1 2.605 2.51.728.728 0 0 1 .015.966 14.6 14.6 0 0 1-6.4 4.624 8.12 8.12 0 0 1-2.627.444 9.009 9.009 0 0 1-4.237-1.127zm-3.736.912a.473.473 0 0 1 .207-.674L13.86 1.743 16.246.117a.389.389 0 0 1 .479-.042A1.779 1.779 0 0 1 17 .432a.659.659 0 0 1-.31.459q-1.666 1.13-3.33 2.264L2.016 10.876l-.1.07a.645.645 0 0 1-.35.124.385.385 0 0 1-.338-.197zM.21 6.074a.754.754 0 0 1-.02-1.022A14.124 14.124 0 0 1 7.094.294a8.292 8.292 0 0 1 6.215.778c.011.005.019.018.046.048L11.3 2.544c-.048-.033-.1-.063-.15-.1A3.415 3.415 0 0 0 5.8 4.806a4 4 0 0 0 .031 1.362.263.263 0 0 1-.081.22c-1 .705-2.01 1.4-3.028 2.109A15.627 15.627 0 0 1 .21 6.074zM8.9 7.139L10.852 5.8a1.679 1.679 0 0 1-1.607 1.381 1.438 1.438 0 0 1-.345-.042zm.763-3.458L7.512 5.174a1.7 1.7 0 0 1 2.15-1.493z" data-name="hide_icon" transform="translate(300.021 366.791)" style="fill:#dedede;stroke:transparent;stroke-miterlimit:10"/>
        <path id="prefix__사각형_1764" d="M0 0H36V36H0z" data-name="사각형 1764" transform="translate(291 355)" style="fill:none"/>
    </g>
</svg>
