<svg xmlns="http://www.w3.org/2000/svg" width="46.015" height="64.875" viewBox="0 0 46.015 64.875">
    <defs>
        <style>
            .prefix__cls-2{fill:#fff0c5;stroke-miterlimit:10;stroke:#fff0c5;stroke-width:3px}.prefix__cls-7{fill:#6acdcd}
        </style>
    </defs>
    <g id="prefix__LogTop" transform="translate(-1.58 .008) translate(2.58 -.008)">
        <g id="prefix__cake">
            <path id="prefix__패스_682" d="M43.327 99.14S12.046 89.977 3.842 87.022c-1.049-.25-1.265-.688-1.262-1.657q.049-12.26 0-24.522a1.666 1.666 0 0 1 1.055-1.79c3.351-1.5 6.69-3.024 10.368-4.693-.228 3.7.778 6.384 3.416 8.273a7.557 7.557 0 0 0 5.844 1.379 7.915 7.915 0 0 0 6.11-4.669 8.575 8.575 0 0 0-.386-7.68 4.359 4.359 0 0 1 .42-.154c3.623-1.126 5.841.13 7.68 3.53 2.558 4.73 5.792 9.094 8.64 13.673a6.039 6.039 0 0 1 .858 2.993c.068 7.967-.189 17.977-.182 25.944zM6.61 63.268c0 2.225.1 4.178-.031 6.116-.1 1.475.346 2.1 1.851 2.469 6.98 1.645 13.926 3.438 20.887 5.166 4.32 1.074 8.64 2.129 13.192 3.249 0-2.308-.071-4.453.028-6.588.052-1.142-.33-1.589-1.432-1.851-6.872-1.666-13.722-3.394-20.585-5.116-4.573-1.137-9.146-2.27-13.91-3.445zm0 12.2c0 2.391.068 4.6-.028 6.789-.049 1.12.367 1.45 1.407 1.7 8.674 2.071 17.333 4.218 26 6.335 2.777.676 5.554 1.327 8.514 2.037 0-2.533.046-4.838-.046-7.134 0-.361-.592-.9-1.006-1.015-2.666-.737-5.36-1.379-8.045-2.049z" data-name="패스 682" transform="translate(-2.58 -35.333)" style="stroke-width:2px;stroke-miterlimit:10;stroke:#f18288;fill:#fff0c5"/>
            <path id="prefix__패스_683" d="M15.535 90.52c4.764 1.176 9.337 2.308 13.907 3.431 6.863 1.706 13.713 3.45 20.585 5.116 1.1.265 1.484.713 1.432 1.851-.1 2.138-.028 4.283-.028 6.588-4.551-1.12-8.875-2.175-13.192-3.249-6.961-1.728-13.907-3.521-20.887-5.166-1.506-.355-1.95-.984-1.851-2.469.145-1.922.034-3.877.034-6.102z" class="prefix__cls-2" data-name="패스 683" transform="translate(-11.505 -62.585)"/>
            <path id="prefix__패스_684" d="M15.569 130.07l26.794 6.674c2.685.67 5.378 1.311 8.045 2.049.413.114.994.654 1.006 1.015.093 2.3.046 4.6.046 7.134-2.972-.71-5.746-1.361-8.514-2.037-8.665-2.117-17.32-4.264-26-6.335-1.04-.247-1.456-.58-1.407-1.7.095-2.193.03-4.409.03-6.8z" class="prefix__cls-2" data-name="패스 684" transform="translate(-11.539 -89.931)"/>
            <path id="prefix__패스_685" d="M41.608 58.758c-1.342 0-10.988-.521-10.988-7.779a8.2 8.2 0 0 1 .074-1.108c1.262-9.282 20.8-9.282 22.069 0a8.171 8.171 0 0 1 .077 1.111c.004 7.779-9.889 7.776-11.232 7.776z" data-name="패스 685" transform="translate(-21.968 -29.667)" style="fill:#fff;stroke-width:2px;stroke-miterlimit:10;stroke:#f18288"/>
            <path id="prefix__패스_760" d="M3.983 28.446s27.894 9.946 35.372 8.72" data-name="패스 760" style="stroke-linecap:round;fill:none;stroke-width:2px;stroke:#f18288"/>
            <path id="prefix__패스_761" d="M0 36.319s28.919 9.116 35.549 9.737 7.769-1.968 7.769-1.968v7.251s-2.072 3.418-7.769 2.072S0 43.466 0 43.466z" data-name="패스 761" style="fill:#f18288;stroke:#f18288"/>
        </g>
        <g id="prefix__cherry">
            <circle id="prefix__타원_323" cx="5.758" cy="5.758" r="5.758" data-name="타원 323" transform="rotate(-20 44.548 -29.002)" style="stroke-width:5.14px;fill:#f18288;stroke-miterlimit:10;stroke:#f18288"/>
            <path id="prefix__패스_688" d="M87.581 1.408a5.219 5.219 0 0 1 .275 2.16c.046 1.2 1.919 1.207 1.873 0A7.143 7.143 0 0 0 89.2.454c-.566-1.054-2.189-.111-1.619.954z" class="prefix__cls-7" data-name="패스 688" transform="translate(-61.269 .008)"/>
            <path id="prefix__패스_807" d="M66.016 15.878c.8-3.913 2.743-8.572 6.835-9.985 1.132-.392.645-2.2-.5-1.808-4.743 1.642-7.2 6.671-8.143 11.3-.241 1.176 1.564 1.682 1.808.5z" class="prefix__cls-7" data-name="패스 807" transform="translate(-45.178 -2.783)"/>
            <path id="prefix__패스_808" d="M64.18 40.72s.617 1.274 2.354.309" data-name="패스 808" transform="translate(-45.172 -28.152)" style="stroke:#6acdcd;stroke-linejoin:round;stroke-linecap:round;fill:#fff;stroke-width:2px"/>
        </g>
    </g>
</svg>
