<?xml version="1.0" encoding="utf-8"?>
<!-- Generator: Adobe Illustrator 21.0.0, SVG Export Plug-In . SVG Version: 6.00 Build 0)  -->
<svg version="1.1" id="Layer_1" xmlns="http://www.w3.org/2000/svg" xmlns:xlink="http://www.w3.org/1999/xlink" x="0px" y="0px"
	 viewBox="0 0 360 427" style="enable-background:new 0 0 360 427;" xml:space="preserve">
<style type="text/css">
	.st0{fill:none;}
	.st1{fill:#F3F4F5;}
	.st2{fill:#F18287;}
	.st3{fill:none;stroke:#FFFFFF;stroke-width:3.5016;stroke-miterlimit:10;}
	.st4{fill:none;stroke:#FFFFFF;stroke-width:3.3678;stroke-miterlimit:10;}
	.st5{fill:none;stroke:#FFFFFF;stroke-width:2.8985;stroke-miterlimit:10;}
	.st6{fill:none;stroke:#FFFFFF;stroke-width:2.1353;stroke-miterlimit:10;}
	.st7{fill:none;stroke:#FFFFFF;stroke-width:2.5895;stroke-miterlimit:10;}
	.st8{fill:none;stroke:#FFFFFF;stroke-width:2.3645;stroke-miterlimit:10;}
	.st9{fill:none;stroke:#FFFFFF;stroke-width:2.1698;stroke-miterlimit:10;}
	.st10{fill:none;stroke:#FFFFFF;stroke-width:2.3028;stroke-miterlimit:10;}
	.st11{fill:none;stroke:#FFFFFF;stroke-width:2.2452;stroke-miterlimit:10;}
	.st12{fill:none;stroke:#D7D7D7;stroke-width:10.1034;stroke-miterlimit:10;}
	.st13{clip-path:url(#SVGID_2_);}
	.st14{clip-path:url(#SVGID_4_);}
	.st15{clip-path:url(#SVGID_6_);}
	.st16{clip-path:url(#SVGID_8_);}
	.st17{clip-path:url(#SVGID_10_);}
	.st18{clip-path:url(#SVGID_12_);}
	.st19{clip-path:url(#SVGID_14_);}
	.st20{clip-path:url(#SVGID_16_);}
	.st21{clip-path:url(#SVGID_18_);}
	.st22{fill:none;stroke:#767576;stroke-width:2.2452;stroke-miterlimit:10;}
</style>
<g>
	<g>
		<rect x="6.2" y="-0.5" class="st0" width="349.4" height="427.8"/>
		<g>
			<g>
				<g>
					<path class="st1" d="M52.2,183.8c0,0,6.4-5.4,18.3-7.4s-2.3-13.2,16-12.7s14.6-21.1,14.6-25.9s-2.3-9.3,3.2-20.6
						s-1.6-35.3,7.1-34.6s11.9,4.3,13.5,0c1.6-4.3,6.4-4.4,10.7-4.4c4.3,0,6.4-6.9,5.7-9.3c-0.7-2.4,6.4-3.4,13.9,7.4
						s10.2,5.8,10.8,15.2c0.7,9.5-5.1,14.1-4.5,14.9c0.6,0.8,11-0.1,11.8-0.7c0.7-0.6,7.8,0.6,8.6-5.2c0.8-5.9-1.7-35.1,1.6-36.9
						s6.7-25.6,11.8-28.7c5-3,13-3.2,13.5-5.4s-3.4-22.5,15.8-20.3s0.4,8.7,16.6,10.5c16.2,1.8,9.6,3.6,18.3,0.6
						c8.7-3,9.5-10.1,14.5-10.1c5,0.1,7.1,6.3,10.6,9.5s18.6-1.5,15,7.8c-3.8,9.3-10.3,9.5-1.2,18.8s-3.8,18.8-4.4,20.2
						c-0.6,1.4-3.9,16.2,5.4,20c9.2,3.8,11.3,1.7,11.4,5c0.1,3.3,0.4,8.9,2.6,11c2.2,2.1,1,12.1-4.2,12.6c-5.3,0.5-5.9,1.5-5.7,5
						s-1.1,7.7,6.2,8c7.4,0.3,5.4,5.6,7.4,7.8c2,2.2,4.4,7.4,0.5,10.7c-4,3.3-6,5.8-3.9,11.2c2.2,5.5-0.3,10.1-1.7,11.1
						c-1.4,1-1.3,2.9-4.6,11.4c-3.3,8.5-8.6,6.4-8.7,8.5c-0.2,2.1,4,2.4,3.4,4.6c-0.7,2.2,0.5,5.4-3,8.4c-3.5,3.1-3.2,6.7-2.4,7.5
						c0.8,0.9,2.5,2.6,2.3,5c-0.2,2.4,1.4,7.6,7.6,5c6.2-2.5,9.1-20,30.7-20.4c21.4-0.5,34.5-18.9,34.5-18.9l3.1,4.3
						c0,0-0.7,5.2-3.9,8.2c-3.2,2.9,3.4,12.2,6.2,12.5c2.7,0.2,0.9,8.8-1.1,12.5c-2.1,3.6,0.9,14.2,3.9,17.2
						c3,2.9-9.4,13.1-29.7,13.9c0,0,2.3,18.7-11.9,31c-14.2,12.2-1.1,10.3-0.9,13s1.4,10.8,10.1,10.5c8.7-0.2,8.9,1.5,8.7,5.4
						c-0.3,3.8-6.4,6.2-6.6,7.9c-0.2,1.7,0.5,15.2-5.7,17c-6.2,1.7-5.9,3.6-5.9,5.4c0,1.7,0.9,9.3-5.7,7.9c-6.6-1.5-4.3,8.1-8.2,11
						s-10.3,0-12.8,5.1c-2.5,5.1-6.6,6.2-13.3,5.7c-6.7-0.5-14.2,2.9-13.5,8.4c0.7,5.4-2.3,5.9-3.9,6.7c-1.6,0.7-2.1,4.4-2.1,6.4
						c0,1.9-6.4,3.9-8.5,3.4s-10.3,4.4-9.1,10.5c1.1,6.2-8.5,1.7-18.3,0c-9.8-1.7-11.9-8.6-10.1-11.8c1.8-3.2-9.1-12.7-4.6-22.1
						c4.5-9.4-6.4-18.2-11.6-13.2c-5.2,4.9-8.3,7.9-9.5,12.2s-11,3.2-10.6-1.1c0.3-4.4-4-15-11-5.6c-7,9.5-24.6,32.2-39.9,32.2
						s-20.9-0.3-21.4-7.2c-0.5-6.9-12-12.9-14.2,0.6c-2.2,13.5-21.2,8-22.4,0.8c-1.2-7.2-3.5-30.3-10.5-30.7c-7-0.5-2-10.8-4.9-17.2
						c-2.9-6.4-7.4-11.8-5.6-20.9c1.8-9.2-13.8-8.7-14,0.5s-12.2,22.9-19.4,22.5s-12.3-1.8-21.9,0.3c-9.6,2.1,4.2-13.5,4.6-16.6
						c0.3-2.9-1-10.6-4.7-15.2c-3.7-4.5,5.2-12.9,5.9-15.5c0.8-2.6,2.2-6.3-0.6-12.1s2.9-9.8,2.7-14.5s5.8-28.6-5.6-30.4
						c-11.5-1.8-14,1.9-16.5,5.4c-2.4,3.4-7.6,7.9-9-3.2c-1.4-11.1-18.4-4.9-23-19.5c-4.6-14.5,3.4-3.6,5.5-11.3
						c2.2-7.7,2.3-13.2,12.6-18.3c10.3-5-2.9-8.4,6.1-16.9c9-8.5,3.4-16.9,3.2-20.3c-0.2-3.4,0.2-7.7,2.3-10.1c0,0,0.7-1.3,0.5-3.6
						l2.8-3.2c0,0,10.3-0.3,25.5,18.5s12.2,17.9,19.5,23.4C49.8,185.2,52.2,183.8,52.2,183.8z"/>
				</g>
			</g>
			<path class="st2" d="M215.4,250c0,0,23.6-5.7,32.5,3.9c0,0,5.4-9.1,5.9-15.6c0.7-6.6,8.7-14.6,8.7-14.6l0.3-0.7l-19.6-9.4
				c0,0-2.8-9.1-1.9-11.1l-8.5-4c0,0-4.2,11.6-12.7,1.5c0,0-11.3,16.2-8.7,33.8L215.4,250z"/>
			<path class="st2" d="M114.9,274.7l14.4-6.4l19.8,2.5l43,28.8l-10.3,37.9l-11.9,2.2c0,0-15.6-0.2-13.1-15.3
				c1.7-10.1-11.1-14.1-15.1-13.7c-4,0.4-22,1.2-22,1.2l-5.3,6l-18.3,6.6l2.4-30.6L114.9,274.7z"/>
			<path class="st2" d="M97.9,325l7.7,5.5c0,0-1.5,31.2,4,36.9c5.5,5.7,6.6,4.1,7,4.4s2.6,5.6,0.7,8.2c0,0,6.5,1,6.2,5.4
				c-0.3,4.4,0.9,10.3,17.5,8.9c16.7-1.4,16.7-3.3,22-7.9s31.2-34.4,31.5-33.9S182,328.8,182,328.8l-42.7-35l-33.7,8.3L97.9,325z"/>
			<path class="st2" d="M166.1,288.5c0,0,19.5,1.7,34.6-22.1s42.3-8.9,45.8-6.8c2.4,1.5,9,7.1,16.9,8.7c3.2,0.6,6.6,0.6,10.1-0.6"/>
			<path class="st2" d="M166.1,289.9l2.7,5.6l4.6,1.6l3.1,0.8l3.1,3.1l0.7,5.9l-2.2,7.7l-2.6,9.9l2.4,9.2l1.4,12.2l7.9,14.4l2.3-1.4
				h3.2l2.2,1.5l1.6,8.8l5.9,2.9l4.6-2.8l3.3-6.1l7.2-7.1h5l4.9,4.2l1.5,4.4l-2.2,10.8l3.8,10.6l1.9,6.1l-1.6,2.9l4.3,5.8l14.5,4.6
				l9.3,1.6l1.9-1.6l0.3-5.1l2.4-3.5l3.9-2.7l4.9-0.7l5.2-2.1l0.8-2.7l0.7-3.2l4.8-4.1l0.4-4l0.4-2.6l2.6-3.1l7.2-2.2l9.9-0.6
				l4.6-2.5l3.4-4.7l7.7-0.9l0.8-2.9c0,0-11-21.2-10.6-23.1c0.4-2-2.4-13.1-9-12.1s0,0,0,0l-4.1-8.2c0,0-18.5-3.7-18.9-6.9"/>
			<path class="st2" d="M278,307.1l-12.6-10.2l-2.8-16.2l0.8-11.6c0,0-28.1,2.5-28.1,3.5c0,1-58.3,13-58.8,12.6
				c-0.5-0.4-10.4,4.7-10.4,4.7l0.6,2.6"/>
			<path class="st2" d="M49,184.5l12.6-5.8l13.2-3.1l3.5-9.9l5.4-1.8l11.9-1.6l5.5-7.3c0,0,2.9-6.7-1.1-23l2-8.8l4.4-13
				c0,0-1.8-28.3,5.5-27c7.2,1.3,10.9,2.3,13.5-1.5c2.6-3.8,5.1-2.6,12.4-4.1c5.5-1.1,3.6-9.1,5.4-9.7c1.5-0.4,7,1.4,12.5,9
				c1.3,1.8,7.3,6.2,9.9,9.3c2.1,2.6,1.1,10.5-2.5,19.5c-1.4,3.3,11.9,0.8,11.9,0.8s-5.4,6.3-6.7,8.2c-2.7,4-3.8,7.9-5.3,16.1
				c-2.3,12.1-1.6,22.3,2,23.3c3.6,1,5.6,14.7,4.4,19c-1.1,4.3-2.9,12.7,0.2,16.7c3.1,3.9,10.3,13.1,4.5,18.1
				c-5.8,5-14.3,9.4-14.3,9.4s-1.1-5.7,1.4,0.9l26-1.9l6.4,7.8h9.3l6.9,5l3.1,11.8l3.9,8.9L194.8,276c0,0,4.6,0.8-8.6,5.5
				c-13.2,4.6-19.3,7.3-31.6-10.1c-12.2-17.4-37.2-34.1-45.5-33.7c-8.4,0.4,3.1,4.6,3.1,4.6s2,10.6,2.8,13.4
				c0.8,2.8,10.5,15.6,10.5,15.6l0,0l-4.3,8.3c0,0-5.8,9.5-5.6,21.2C116,312.5,105,310,105,310s-9.5,2.5-7.1,15c0,0-4.9-1.5-8.4-3.7
				c0,0,1.8-11.6-4.8-15.2c-3-1.6-0.8-5.8-2.1-8.4c-1.3-2.6-19-8-19-8l2.8-6.9l0.5-20.7c0,0,6.2-5.4,6.7-12c0.7-3-1.6-8.7-5.3-16.6
				c-2-4.1,5.3-3.7,5.3-3.7l6.8-4.4L58.2,205L49,184.5L49,184.5"/>
			<path class="st2" d="M208.9,178l4.5,4l2.6,9.2c1.5,3,5.3,10.9,5.3,10.9l7.1,3.1l5-5.6l7.9,4c0,0-2.2,7.5,4.1,11.9
				c5.5,3.9,18.4,6.4,17.4,8.2c-5,9.3-9.1,16.5-10.2,20.2c-1,3.7-5.3,8.5-5.3,8.5s16,14.6,23.1,12.5c14.9-4.4,53.7-41.8,40.7-44.8
				c-2.7-0.6-2.4-2.8-2.4-2.8s-1.4-6.5-2.9-9.4c-1.5-2.9-1.9-3.5-2.8-6.9c-1-3.4,2.2-4.3,3.3-6.4c2.4-4.2,2.1-4.5,2.3-7.6
				c0.2-3.6,0.4-1-2.4-4.6c-5.5-7.3-12.2,0.8-14.1,1.5s-1,1.1-10.4-1.2c-5.9-1.4-7.1-9.1-7.1-9.1l-5.9-40.6c0,0-21.8-0.6-26.7,3.2
				c-4.9,3.8-6,7.1-7.8,11.3c-1.9,4.2-6.6,9.9-9.4,12.5c-3.1,2.8-5.7,2.2-5.9,2.7C215,177.1,212.7,177.1,208.9,178z"/>
			<path class="st3" d="M175,105.6c0,0-11.1,13.3-11.9,23.6s-0.1,24,3.5,27.5c5.3,5.1,4,5.9,2.3,20.7c-1.8,14.3,0.4,9.7,6.8,21.2
				c0,0,3.2,8.4-15.7,18.7c0,0-18.4-2.8-19.2-3.1c-0.8-0.2-48.2-45.3-51.3-43.6c-3.2,1.7-6.6-6.6-6.6-6.6"/>
			<path class="st4" d="M163.2,146.2c0,0-18.1,1.5-19,10.6c-0.9,9.1-10.3,1.5-12.6,9.9c-2.4,8.4-2.6,5.4-12.4,5s-14.1,7-12.5,11.5"
				/>
			<path class="st4" d="M158.9,216.7c0,0,13.4,9.6-1.5,24.3s-19.2,19.5-19.2,19.5"/>
			<path class="st5" d="M175.9,105.6c0,0,5.2,2,6.1,6.2s7.3,24.3,8.2,26.8c3.2,9,0.7,10.4-4.6,11.6l-6,1.4l0.5,7
				c0,0,13.9-0.1,13.8,8.2c0,2,4.2,15.2,12.9,12.1c7.5-2.7,7.7,9.2,9.1,12.6c0.9,2.3,2.1,4.1,2.1,4.1s2.4,3.1,0.6,7.4
				c-5.8,13.2-10.5,15.2-6.9,34c1.1,5.8,4.3,16.3,4.3,16.3"/>
			<path class="st5" d="M161.3,219.1c0,0,23.5-3.7,25.6-1.9c2.1,1.9,4.6,8.2,7.8,8.2c3.3,0,8.2-2.7,13.5,3c3,3.3,5.8,18.5,5.8,18.5"
				/>
			<path class="st5" d="M174.2,198.1c3.8,1.5,6.6-2.1,10.2-4c3.6-2,0.8,4.8,5.4,3c4.7-1.8,25.7-6.1,25.7-6.1s6.1,16,13.6,13.4
				c3.5-1.2,3.9-4.7,3.9-4.7l8.3,4.2c0,0,0.2,9.6,2.1,10.8s19.6,9.3,19.6,9.3"/>
			<path class="st6" d="M182.7,88.1c0,0,2.5,8.2,5.6,8.6c3.1,0.4,3,2.6,17.7,10.5c10.8,5.9,1.9,17.9,19.5,17.1
				c18.2-0.8,8.5-8.7,20.8-17.9c0,0,9.8,15.7,13.9,16.7c4.1,0.9,6.9-1.6,6.9-1.6s13.7-9.2,18-8.7c4.2,0.5,17.9,5,19.7,3.4"/>
			<path class="st7" d="M206.8,178.5c0,0,7.4,1,10.1-9.1c1.2-4.8,4.4-7.7,6.4-8.6c12-5.8,8.7-23.3,24.1-25.8s21.4-1.7,21.4-1.7
				l-1.5-11.9"/>
			<path class="st4" d="M246.3,253.2c0,0,5.6-3.2,8.4-16.2c2.8-12.9,9.3-1.6,12.5-32.4l10-23.9c0,0,15.1,5.5,17,2.5s2.1-3.6,12-1.8"
				/>
			<line class="st8" x1="268.7" y1="133.2" x2="276.6" y2="180.8"/>
			<path class="st9" d="M205.9,31.2c0,0,4-0.6,3.3,13.6c-0.7,14.2-1.9,25.4,0.1,26.1c2,0.7,4.4,8.3,13.1,8.7
				c8.6,0.5,26.8,32.4,26.8,32.4"/>
			<path class="st10" d="M256.6,21.3c0,0,0.7,11.8-3.2,24.2c-3.9,12.4-1.3,13.6,1.6,19.9c2.9,6.2-4,20.7-5.8,26.7
				c-1.8,6-0.8,3-0.6,7.4l-6.1,1.7"/>
			<path class="st4" d="M203.8,264.3c0,0,11,13.5,11,20.1c0,6.7,2.5,11.5,5,13.7c2.5,2.2-1.4,14.7,5.3,23.5
				c6.6,8.8,10.1,2.9,16,16.7c5.9,13.7,0.9,17.9,8.2,17.2c7.3-0.7,9.1-0.7,11.7-6.9c2.5-6.2,19.8-8.8,20.3,2.2
				c0.5,11,10,9.4,11.3,18.3"/>
			<path class="st11" d="M166.1,288.5c0,0-0.9,7.9,7.3,8.6c8.2,0.7,7.5,8.8,6.2,13.2c-1.4,4.4-4.8,11.3-3,18.2
				c1.8,6.9,2.5,17.4,2.5,17.4l7.9,14.4"/>
			<path class="st11" d="M126.1,272.8c0,0-9.1,14.2-9.3,22.5c-0.2,8.4-2.1,15.4-8.5,15.4s-10.5,4.4-9.8,11.8
				c0.1,0.7,0.2,1.3,0.3,1.8c1.5,5.2,6.8,4.3,7,6.8c0.2,2.7,0.2,28.7,1.4,31.6c1.1,2.9,4.1,9.1,8.2,8.8c4.1-0.2,1.9,8.5,1.9,8.5"/>
			<path class="st11" d="M15.8,240.1c0,0,0.8-12.7,10-7.5c9.1,5.2,0,16.2,12.8,20.5c12.8,4.3,20.7,0.7,21-9.1
				c0.3-9.8-0.3-15.1,7.6-14c7.5,1,9.2-0.5,10.7-3.5"/>
			<path class="st2" d="M89.9,321.2c0,0,2.1-9.9-2.3-12.5s-3.6-9.7-4.8-11.6c-1.2-1.8-17.5-6.6-21.2-6.3l-10.6-2.5
				c0,0-1.2-7.5-3-7.6s-5.9,1.7-14.6,9c0,0-4.9,5.5-9.4-3.3c0,0-1.2-4.1-8-2.8c-6.8,1.3,0,0,0,0s3.3,6.5,1.2,10.5
				s-8.2,11.3-6.6,17.1s7.3,11.1,3.2,18.2c-4.1,7.1-12.9,14.2,0.4,12.9c13.2-1.3,20.8,2.5,26.1-2.8c5.3-5.3,9.1-9.6,11.2-16.4
				s0.6-9.6,7.1-9.9c6.5-0.3,7.4,1.3,7.3,6.5c-0.1,5.2-0.1,5.2-0.1,5.2s6-0.4,8-0.4s7.2,2.3,10.6-0.3S88.7,319.3,89.9,321.2z"/>
			<path class="st12" d="M114.9,241.6c0,0-1.4,37,32,27.4"/>
			<g>
				<g>
					<g>
						<defs>
							<path id="SVGID_1_" d="M216.1,327.1c0.2,0,0.5,0.1,0.6,0.2c0.1,0.1,0.2,0.4,0.2,0.7v3c0,0.4-0.2,0.6-0.6,0.6
								c-0.4,0-0.6-0.2-0.6-0.6v-2.4c0-0.3-0.1-0.4-0.4-0.4h-2.8c-0.1,0-0.2,0-0.4-0.1c-0.1-0.1-0.2-0.2-0.2-0.4
								c0-0.2,0.1-0.3,0.2-0.4s0.2-0.1,0.4-0.1h3.6V327.1z M215.3,336.9c0,0.2-0.1,0.3-0.2,0.4c-0.1,0.1-0.3,0.1-0.4,0.1
								c-0.2,0-0.3,0-0.4-0.1c-0.1-0.1-0.2-0.2-0.2-0.4v-2.8h-2.7c-0.2,0-0.3-0.1-0.4-0.2c-0.1-0.1-0.1-0.2-0.1-0.4
								c0-0.2,0-0.3,0.1-0.4c0.1-0.1,0.2-0.2,0.4-0.2h6.6c0.2,0,0.3,0.1,0.4,0.2c0.1,0.1,0.1,0.2,0.1,0.4c0,0.1,0,0.3-0.1,0.4
								c-0.1,0.1-0.2,0.2-0.4,0.2h-2.7L215.3,336.9L215.3,336.9z M209.1,334.8c0.2,0,0.3,0.1,0.4,0.2s0.1,0.2,0.1,0.4
								c0,0.1,0,0.3-0.1,0.4c-0.1,0.1-0.2,0.2-0.4,0.2h-6.7c-0.2,0-0.3-0.1-0.4-0.2c-0.1-0.1-0.1-0.2-0.1-0.4c0-0.2,0-0.3,0.1-0.4
								s0.2-0.2,0.4-0.2h2.7v-0.9c0-0.2,0.1-0.3,0.2-0.4c0.1-0.1,0.3-0.1,0.4-0.1c0.1,0,0.3,0,0.4,0.1c0.1,0.1,0.2,0.2,0.2,0.4v1
								h2.8L209.1,334.8L209.1,334.8z M208.1,332.6c0.1,0.1,0.2,0.3,0.2,0.4c0,0.2,0,0.3-0.2,0.4c-0.1,0.1-0.3,0.1-0.4,0.1
								c-0.2,0-0.3-0.1-0.5-0.3l-1.1-1c-0.1,0-0.1-0.1-0.2-0.1s-0.1,0-0.2,0.1l-1.2,1.2c-0.1,0.1-0.3,0.2-0.5,0.2
								c-0.2,0-0.3,0-0.4-0.2c-0.1-0.1-0.1-0.2-0.1-0.3c0-0.1,0-0.2,0-0.2c0-0.1,0.1-0.1,0.1-0.2c0.1-0.1,0.1-0.1,0.2-0.2
								c0.4-0.3,0.8-0.7,1.2-1.1s0.8-0.8,1.1-1.3c0.1-0.2,0.2-0.4,0.2-0.5c0-0.1-0.1-0.2-0.3-0.2h-1.6c-0.2,0-0.4,0-0.5-0.1
								c-0.1-0.1-0.2-0.2-0.2-0.4s0.1-0.3,0.2-0.4c0.1-0.1,0.3-0.1,0.5-0.1h0.6c0.1,0,0.1,0,0.1-0.1s0-0.1,0-0.2l-0.2-0.3
								c-0.1-0.1-0.1-0.3,0-0.4c0.1-0.1,0.1-0.2,0.3-0.3c0.1-0.1,0.3-0.1,0.4-0.1c0.1,0,0.3,0.1,0.4,0.2l0.5,0.8
								c0.1,0.1,0.1,0.2,0.2,0.2c0,0.1,0.1,0.1,0.3,0.1c0.4,0,0.6,0.1,0.8,0.3c0.2,0.2,0.2,0.4,0.2,0.7c0,0.3-0.1,0.6-0.3,0.8
								c-0.2,0.2-0.3,0.5-0.5,0.7l-0.1,0.1c0,0,0,0.1,0.1,0.2L208.1,332.6z M197.9,333.8c0.1,0.2,0.1,0.3,0,0.5
								c-0.1,0.2-0.2,0.3-0.3,0.4c-0.2,0.1-0.4,0.1-0.5,0c-0.1-0.1-0.2-0.2-0.3-0.3l-0.8-2.1c0-0.1-0.1-0.1-0.1-0.2l-0.1-0.1
								c-0.1,0-0.1,0-0.1,0.1c0,0-0.1,0.1-0.1,0.2l-0.9,2.2c-0.1,0.2-0.2,0.3-0.4,0.3c-0.2,0.1-0.3,0-0.5,0
								c-0.2-0.1-0.3-0.2-0.3-0.3c0-0.1,0-0.3,0-0.5l1.7-4c0-0.1,0.1-0.2,0.2-0.2c0.1-0.1,0.2-0.1,0.4-0.1c0.1,0,0.2,0,0.3,0.1
								c0.1,0,0.2,0.1,0.2,0.2L197.9,333.8z M200.7,336c0,0.2-0.1,0.3-0.2,0.4c-0.1,0.1-0.3,0.1-0.4,0.1c-0.2,0-0.3-0.1-0.4-0.1
								c-0.1-0.1-0.2-0.2-0.2-0.3v-3.6h-0.8c-0.2,0-0.4-0.1-0.5-0.2c-0.1-0.1-0.1-0.3-0.1-0.4c0-0.1,0.1-0.3,0.2-0.4
								c0.1-0.1,0.3-0.2,0.5-0.2h0.8V329c-0.1-0.1-0.2-0.1-0.3-0.2s-0.1-0.2-0.1-0.3c0-0.2,0.1-0.3,0.2-0.4c0.1-0.1,0.3-0.2,0.4-0.2
								c0.3,0,0.5,0.1,0.7,0.3c0.2,0.2,0.3,0.4,0.3,0.6L200.7,336L200.7,336z"/>
						</defs>
						<clipPath id="SVGID_2_">
							<use xlink:href="#SVGID_1_"  style="overflow:visible;"/>
						</clipPath>
						<g class="st13">
							<g>
								<g>
									<defs>
										<rect id="SVGID_3_" x="33.4" y="-274.8" width="351.6" height="817"/>
									</defs>
									<clipPath id="SVGID_4_">
										<use xlink:href="#SVGID_3_"  style="overflow:visible;"/>
									</clipPath>
									<g class="st14">
										<g>
											<g>
												<defs>
													<rect id="SVGID_5_" x="33.4" y="-274.8" width="351.6" height="817"/>
												</defs>
												<clipPath id="SVGID_6_">
													<use xlink:href="#SVGID_5_"  style="overflow:visible;"/>
												</clipPath>
												<g class="st15">
												</g>
											</g>
										</g>
									</g>
									<g class="st14">
										<g>
											<g>
												<defs>
													<path id="SVGID_7_" d="M259.1,305.1c0.2,0,0.5,0.1,0.6,0.2c0.1,0.1,0.2,0.4,0.2,0.7v3c0,0.4-0.2,0.6-0.6,0.6
														c-0.4,0-0.6-0.2-0.6-0.6v-2.4c0-0.3-0.1-0.4-0.4-0.4h-2.8c-0.1,0-0.2,0-0.4-0.1c-0.1-0.1-0.2-0.2-0.2-0.4
														c0-0.2,0.1-0.3,0.2-0.4s0.2-0.1,0.4-0.1h3.6V305.1z M258.3,314.9c0,0.2-0.1,0.3-0.2,0.4s-0.3,0.1-0.4,0.1
														c-0.2,0-0.3,0-0.4-0.1s-0.2-0.2-0.2-0.4V312h-2.7c-0.2,0-0.3-0.1-0.4-0.2s-0.1-0.2-0.1-0.4s0-0.3,0.1-0.4
														c0.1-0.1,0.2-0.2,0.4-0.2h6.6c0.2,0,0.3,0.1,0.4,0.2c0.1,0.1,0.1,0.2,0.1,0.4c0,0.1,0,0.3-0.1,0.4s-0.2,0.2-0.4,0.2
														h-2.7L258.3,314.9L258.3,314.9z M248.3,312.8c-0.1,0-0.3,0-0.4,0.1c-0.1,0.1-0.1,0.2-0.1,0.4v1.2c0,0.1,0,0.2,0.1,0.3
														c0.1,0.1,0.2,0.1,0.4,0.1h1.3c0.1,0,0.3,0,0.4-0.1c0.1-0.1,0.1-0.2,0.1-0.3v-1.2c0-0.2,0-0.4-0.1-0.4
														c-0.1-0.1-0.2-0.1-0.4-0.1H248.3z M245.8,310.3c-0.2,0-0.5-0.1-0.6-0.2c-0.2-0.2-0.2-0.4-0.2-0.7v-3.4
														c0-0.4,0.2-0.6,0.6-0.6c0.4,0,0.6,0.2,0.6,0.6v2.7c0,0.3,0.1,0.4,0.4,0.4h2.1c0.1,0,0.2,0,0.4,0.1
														c0.1,0.1,0.2,0.2,0.2,0.4c0,0.2-0.1,0.3-0.2,0.4c-0.1,0.1-0.2,0.2-0.4,0.2L245.8,310.3L245.8,310.3z M251.5,310.5
														c0,0.2-0.1,0.3-0.2,0.4s-0.3,0.1-0.4,0.1c-0.2,0-0.3-0.1-0.4-0.1c-0.1-0.1-0.2-0.2-0.2-0.3v-5.1
														c-0.1-0.1-0.2-0.1-0.3-0.2c-0.1-0.1-0.1-0.2-0.1-0.3c0-0.2,0.1-0.3,0.2-0.4c0.1-0.1,0.3-0.2,0.4-0.2
														c0.3,0,0.5,0.1,0.7,0.3c0.2,0.2,0.3,0.4,0.3,0.6v2.2c0.2,0,0.4-0.1,0.6-0.1c0.2,0,0.5,0,0.7,0c0.1,0,0.2,0.1,0.3,0.2
														c0,0.1,0.1,0.2,0.1,0.3c0,0.1,0,0.2-0.1,0.3c0,0.1-0.1,0.2-0.2,0.2s-0.3,0.1-0.6,0.1s-0.5,0-0.8,0V310.5z M246.6,312.4
														c0-0.2,0.1-0.4,0.2-0.6c0.1-0.1,0.3-0.2,0.5-0.2h3.3c0.2,0,0.3,0.1,0.5,0.2c0.1,0.1,0.2,0.3,0.2,0.6v2.8
														c0,0.2-0.1,0.4-0.2,0.6c-0.1,0.1-0.3,0.2-0.5,0.2h-3.3c-0.2,0-0.3-0.1-0.5-0.2c-0.1-0.1-0.2-0.3-0.2-0.6V312.4z
														 M240.8,313.8c0-0.3-0.1-0.6-0.3-0.8c-0.2-0.2-0.5-0.3-0.8-0.3c-0.1,0-0.2,0-0.3,0c-0.1,0-0.2,0.1-0.4,0.2
														c-0.1,0.1-0.2,0.2-0.3,0.3c-0.1,0.1-0.1,0.3-0.1,0.6c0,0.4,0.1,0.7,0.3,0.8c0.2,0.2,0.5,0.3,0.7,0.3
														c0.3,0,0.6-0.1,0.8-0.3C240.7,314.4,240.8,314.1,240.8,313.8z M242.4,310.5c0,0.2-0.1,0.3-0.2,0.4
														c-0.1,0.1-0.3,0.1-0.4,0.1c-0.2,0-0.3-0.1-0.4-0.1c-0.1-0.1-0.2-0.2-0.2-0.3v-5.1c-0.1-0.1-0.2-0.1-0.3-0.2
														c-0.1-0.1-0.1-0.2-0.1-0.3c0-0.2,0.1-0.3,0.2-0.4c0.1-0.1,0.3-0.2,0.4-0.2c0.3,0,0.5,0.1,0.7,0.3
														c0.2,0.2,0.3,0.4,0.3,0.6v2.2c0.2,0,0.4-0.1,0.6-0.1s0.5,0,0.7,0c0.1,0,0.2,0.1,0.3,0.2c0,0.1,0.1,0.2,0.1,0.3
														c0,0.1,0,0.2-0.1,0.3c0,0.1-0.1,0.2-0.2,0.2c-0.1,0-0.3,0.1-0.6,0.1c-0.3,0-0.5,0-0.8,0V310.5z M239.1,305.5
														c0.3,0,0.5,0.1,0.5,0.2c0.1,0.1,0.1,0.4,0.1,0.7c0,0.5-0.1,1.1-0.2,1.6c-0.1,0.5-0.4,0.9-0.7,1.3s-0.7,0.7-1.1,0.9
														c-0.5,0.2-0.9,0.4-1.6,0.5c-0.2,0-0.3,0-0.4-0.1c-0.1-0.1-0.2-0.2-0.2-0.3c0-0.1,0-0.3,0.1-0.4
														c0.1-0.1,0.2-0.2,0.4-0.2c0.8-0.1,1.4-0.3,1.9-0.8c0.4-0.4,0.7-1,0.8-1.9c0-0.2,0-0.3-0.1-0.3c-0.1,0-0.2-0.1-0.2-0.1
														h-2.3c-0.1,0-0.3,0-0.4-0.1c-0.1-0.1-0.1-0.2-0.1-0.4s0-0.3,0.1-0.4c0.1-0.1,0.2-0.1,0.4-0.1h3L239.1,305.5
														L239.1,305.5z M241.8,314c0,0.4-0.1,0.7-0.2,0.9c-0.1,0.3-0.3,0.5-0.5,0.6c-0.2,0.1-0.5,0.3-0.7,0.3
														c-0.3,0.1-0.5,0.1-0.7,0.1c-0.4,0-0.8-0.1-1-0.2s-0.5-0.3-0.7-0.5s-0.3-0.4-0.4-0.7c-0.1-0.2-0.1-0.5-0.1-0.7
														c0-0.2,0-0.4,0.1-0.7c0.1-0.3,0.2-0.5,0.4-0.7c0.2-0.2,0.4-0.4,0.7-0.6s0.7-0.2,1-0.2c0.3,0,0.6,0.1,0.8,0.2
														c0.3,0.1,0.5,0.3,0.7,0.5c0.2,0.2,0.3,0.5,0.4,0.7C241.8,313.4,241.8,313.7,241.8,314z"/>
												</defs>
												<clipPath id="SVGID_8_">
													<use xlink:href="#SVGID_7_"  style="overflow:visible;"/>
												</clipPath>
												<g class="st16">
													<g>
														<g>
															<defs>
																<rect id="SVGID_9_" x="19.3" y="-287.8" width="351.6" height="817"/>
															</defs>
															<clipPath id="SVGID_10_">
																<use xlink:href="#SVGID_9_"  style="overflow:visible;"/>
															</clipPath>
															<g class="st17">
																<g>
																	<g>
																		<defs>
																			<rect id="SVGID_11_" x="19.3" y="-287.8" width="351.6" height="817"/>
																		</defs>
																		<clipPath id="SVGID_12_">
																			<use xlink:href="#SVGID_11_"  style="overflow:visible;"/>
																		</clipPath>
																		<g class="st18">
																		</g>
																	</g>
																</g>
															</g>
															<g class="st17">
																<g>
																	<g>
																		<defs>
																			<path id="SVGID_13_" d="M295,220.8c0.2,0,0.4,0.1,0.6,0.2c0.1,0.1,0.2,0.4,0.2,0.7v2.8c0,0.4-0.2,0.6-0.6,0.6
																				c-0.4,0-0.6-0.2-0.6-0.6v-2.2c0-0.3-0.1-0.4-0.4-0.4h-2.5c-0.1,0-0.2,0-0.4-0.1c-0.1-0.1-0.2-0.2-0.2-0.4
																				c0-0.2,0-0.3,0.1-0.4c0.1-0.1,0.2-0.1,0.4-0.1h3.4V220.8z M294.3,230c0,0.2-0.1,0.3-0.2,0.3
																				c-0.1,0.1-0.3,0.1-0.4,0.1c-0.2,0-0.3,0-0.4-0.1s-0.2-0.2-0.2-0.4v-2.6h-2.5c-0.2,0-0.3-0.1-0.4-0.2
																				c-0.1-0.1-0.1-0.2-0.1-0.4s0-0.3,0.1-0.4c0.1-0.1,0.2-0.1,0.4-0.1h6.1c0.2,0,0.3,0,0.4,0.1
																				c0.1,0.1,0.1,0.2,0.1,0.4c0,0.1,0,0.3-0.1,0.4s-0.2,0.2-0.4,0.2h-2.5L294.3,230L294.3,230z M286.2,225.3
																				c0.1,0.1,0.2,0.2,0.2,0.4s0,0.3-0.1,0.4c-0.1,0.1-0.2,0.1-0.4,0.1c-0.2,0-0.3-0.1-0.5-0.2l-1-1
																				c-0.1,0-0.1-0.1-0.2-0.1c-0.1,0-0.1,0-0.2,0.1l-1.1,1.1c-0.1,0.1-0.3,0.2-0.4,0.2c-0.2,0-0.3,0-0.4-0.2
																				c-0.1-0.1-0.1-0.2-0.1-0.2c0-0.1,0-0.2,0-0.2c0-0.1,0.1-0.1,0.1-0.2c0.1-0.1,0.1-0.1,0.2-0.2
																				c0.4-0.3,0.8-0.7,1.1-1c0.4-0.4,0.8-0.8,1-1.2c0.1-0.2,0.2-0.4,0.2-0.5s-0.1-0.2-0.3-0.2h-1.5
																				c-0.2,0-0.3,0-0.5-0.1c-0.1-0.1-0.2-0.2-0.2-0.4s0.1-0.3,0.2-0.4s0.3-0.1,0.4-0.1h2.1c0.3,0,0.6,0.1,0.7,0.3
																				c0.2,0.2,0.2,0.4,0.2,0.7s-0.1,0.6-0.3,0.9c-0.2,0.3-0.3,0.5-0.5,0.7l-0.1,0.1c0,0,0,0.1,0.1,0.2L286.2,225.3z
																				 M284.8,230.9c-0.2,0-0.4-0.1-0.6-0.2c-0.1-0.1-0.2-0.4-0.2-0.7v-2.2c0-0.4,0.2-0.6,0.6-0.6
																				c0.4,0,0.6,0.2,0.6,0.6v1.6c0,0.3,0.1,0.4,0.4,0.4h2.4c0.1,0,0.2,0,0.4,0.1c0.1,0.1,0.2,0.2,0.2,0.4
																				s0,0.3-0.1,0.4c-0.1,0.1-0.2,0.1-0.4,0.1L284.8,230.9L284.8,230.9z M288.6,226.2c0,0.2-0.1,0.3-0.2,0.4
																				c-0.1,0.1-0.2,0.1-0.4,0.1c-0.1,0-0.3,0-0.4-0.1c-0.1-0.1-0.2-0.2-0.2-0.3v-4.8c-0.1-0.1-0.2-0.1-0.3-0.2
																				c-0.1-0.1-0.1-0.2-0.1-0.3c0-0.2,0.1-0.3,0.2-0.4c0.1-0.1,0.2-0.2,0.4-0.2c0.3,0,0.5,0.1,0.6,0.2
																				c0.2,0.2,0.3,0.4,0.3,0.6L288.6,226.2L288.6,226.2z M278.2,229.4c0-0.3-0.1-0.5-0.3-0.7
																				c-0.2-0.2-0.4-0.3-0.7-0.3c-0.1,0-0.2,0-0.3,0c-0.1,0-0.2,0.1-0.3,0.1c-0.1,0.1-0.2,0.2-0.3,0.3
																				c-0.1,0.1-0.1,0.3-0.1,0.5c0,0.4,0.1,0.6,0.3,0.8c0.2,0.2,0.4,0.2,0.7,0.2c0.3,0,0.5-0.1,0.7-0.3
																				C278.2,229.9,278.2,229.7,278.2,229.4z M276.9,220.2c0.2,0,0.4,0.1,0.6,0.2c0.1,0.1,0.2,0.4,0.2,0.7v2.5
																				c0,0.4-0.2,0.6-0.6,0.6s-0.6-0.2-0.6-0.6v-1.9c0-0.3-0.1-0.4-0.4-0.4h-2c-0.1,0-0.2,0-0.4-0.1
																				c-0.1-0.1-0.2-0.2-0.2-0.4s0-0.3,0.1-0.4s0.2-0.1,0.4-0.1h2.8L276.9,220.2L276.9,220.2z M278.2,225.4
																				c0.2,0,0.3,0,0.4,0.1c0.1,0.1,0.1,0.2,0.1,0.4c0,0.1,0,0.3-0.1,0.4c-0.1,0.1-0.2,0.2-0.4,0.2h-4.5
																				c-0.2,0-0.3-0.1-0.4-0.2c-0.1-0.1-0.1-0.2-0.1-0.4c0-0.2,0-0.3,0.1-0.4c0.1-0.1,0.2-0.1,0.4-0.1h0.9v-1.8
																				c0-0.2,0.1-0.3,0.2-0.4s0.3-0.1,0.4-0.1s0.3,0,0.4,0.1c0.1,0.1,0.2,0.2,0.2,0.3v1.8L278.2,225.4L278.2,225.4z
																				 M280.1,226.1c0,0.2-0.1,0.3-0.2,0.4c-0.1,0.1-0.2,0.1-0.4,0.1c-0.1,0-0.3,0-0.4-0.1c-0.1-0.1-0.2-0.2-0.2-0.3
																				v-5.5c-0.1-0.1-0.2-0.1-0.3-0.2c-0.1-0.1-0.1-0.2-0.1-0.3c0-0.2,0.1-0.3,0.2-0.4c0.1-0.1,0.2-0.2,0.4-0.2
																				c0.3,0,0.5,0.1,0.6,0.2c0.2,0.2,0.3,0.4,0.3,0.6v2c0.2,0,0.3,0,0.5,0c0.2,0,0.3,0,0.4,0s0.2,0.1,0.2,0.2
																				c0,0.1,0.1,0.2,0.1,0.3c0,0.1,0,0.2,0,0.3c0,0.1-0.1,0.2-0.2,0.2s-0.2,0.1-0.4,0.1s-0.4,0-0.6,0.1L280.1,226.1
																				L280.1,226.1L280.1,226.1z M279.2,229.5c0,0.4-0.1,0.6-0.2,0.9c-0.1,0.2-0.3,0.4-0.5,0.6
																				c-0.2,0.1-0.4,0.2-0.7,0.3c-0.2,0.1-0.5,0.1-0.7,0.1c-0.4,0-0.7-0.1-0.9-0.2c-0.3-0.1-0.5-0.3-0.6-0.5
																				c-0.2-0.2-0.3-0.4-0.3-0.6c-0.1-0.2-0.1-0.5-0.1-0.7s0-0.4,0.1-0.7c0.1-0.2,0.2-0.5,0.3-0.7
																				c0.2-0.2,0.4-0.4,0.6-0.5c0.3-0.1,0.6-0.2,1-0.2c0.3,0,0.6,0.1,0.8,0.2c0.3,0.1,0.5,0.3,0.7,0.5
																				c0.2,0.2,0.3,0.4,0.4,0.7C279.2,229,279.2,229.2,279.2,229.5z"/>
																		</defs>
																		<clipPath id="SVGID_14_">
																			<use xlink:href="#SVGID_13_"  style="overflow:visible;"/>
																		</clipPath>
																		<g class="st19">
																			<g>
																				<g>
																					<defs>
																						<rect id="SVGID_15_" x="24.5" y="-284.4" width="351.6" height="817"/>
																					</defs>
																					<clipPath id="SVGID_16_">
																						<use xlink:href="#SVGID_15_"  style="overflow:visible;"/>
																					</clipPath>
																					<g class="st20">
																						<g>
																							<g>
																								<defs>
																									<rect id="SVGID_17_" x="24.5" y="-284.4" width="351.6" height="817"/>
																								</defs>
																								<clipPath id="SVGID_18_">
																									<use xlink:href="#SVGID_17_"  style="overflow:visible;"/>
																								</clipPath>
																								<g class="st21">
																								</g>
																							</g>
																						</g>
																					</g>
																					<g class="st20">
																						<g>
																							<g>
																								<defs>
																									<path id="SVGID_19_" d="M259.5,171.7c0.2,0,0.4,0.1,0.6,0.2c0.1,0.1,0.2,0.4,0.2,0.7v2.8
																										c0,0.4-0.2,0.6-0.6,0.6c-0.4,0-0.6-0.2-0.6-0.6v-2.2c0-0.3-0.1-0.4-0.4-0.4h-2.6c-0.1,0-0.2,0-0.4-0.1
																										c-0.1-0.1-0.2-0.2-0.2-0.4s0-0.3,0.1-0.4c0.1-0.1,0.2-0.1,0.4-0.1h3.5V171.7z M258.7,180.9
																										c0,0.2-0.1,0.3-0.2,0.3c-0.1,0.1-0.3,0.1-0.4,0.1c-0.2,0-0.3,0-0.4-0.1c-0.1-0.1-0.2-0.2-0.2-0.4v-2.6
																										h-2.5c-0.2,0-0.3-0.1-0.4-0.2s-0.1-0.2-0.1-0.4s0-0.3,0.1-0.4c0.1-0.1,0.2-0.1,0.4-0.1h6.1
																										c0.2,0,0.3,0,0.4,0.1c0.1,0.1,0.1,0.2,0.1,0.4c0,0.1,0,0.3-0.1,0.4c-0.1,0.1-0.2,0.2-0.4,0.2h-2.5
																										L258.7,180.9L258.7,180.9z M249.5,172c-0.1,0-0.3,0-0.3,0.1c-0.1,0.1-0.1,0.2-0.1,0.4v1.1
																										c0,0.1,0,0.2,0.1,0.3c0.1,0.1,0.2,0.1,0.3,0.1h1c0.1,0,0.3,0,0.3-0.1c0.1-0.1,0.1-0.2,0.1-0.3v-1.1
																										c0-0.2,0-0.3-0.1-0.4s-0.2-0.1-0.3-0.1H249.5z M248.6,181.9c-0.2,0-0.4-0.1-0.6-0.2
																										c-0.1-0.1-0.2-0.4-0.2-0.7v-1.9c0-0.4,0.2-0.6,0.6-0.6c0.4,0,0.6,0.2,0.6,0.6v1.3c0,0.3,0.1,0.4,0.4,0.4
																										h2.4c0.1,0,0.2,0,0.4,0.1c0.1,0.1,0.2,0.2,0.2,0.4s0,0.3-0.1,0.4c-0.1,0.1-0.2,0.1-0.4,0.1L248.6,181.9
																										L248.6,181.9z M250.6,178.7c0,0.2-0.1,0.3-0.2,0.3c-0.1,0.1-0.3,0.1-0.4,0.1c-0.2,0-0.3,0-0.4-0.1
																										c-0.1-0.1-0.2-0.2-0.2-0.4v-1.7h-2.6c-0.2,0-0.3-0.1-0.4-0.2s-0.1-0.2-0.1-0.4s0-0.3,0.1-0.4
																										c0.1-0.1,0.2-0.1,0.4-0.1h6.1c0.2,0,0.3,0,0.4,0.1c0.1,0.1,0.1,0.2,0.1,0.4c0,0.1,0,0.3-0.1,0.4
																										c-0.1,0.1-0.2,0.2-0.4,0.2h-2.4L250.6,178.7L250.6,178.7z M248,171.7c0-0.2,0.1-0.4,0.2-0.5
																										c0.1-0.1,0.3-0.2,0.4-0.2h2.8c0.2,0,0.3,0.1,0.4,0.2c0.1,0.1,0.2,0.3,0.2,0.5v2.6c0,0.2-0.1,0.4-0.2,0.5
																										c-0.1,0.1-0.3,0.2-0.4,0.2h-2.8c-0.1,0-0.3-0.1-0.4-0.2c-0.1-0.1-0.2-0.3-0.2-0.5V171.7z M241.2,177.7
																										c0.1,0,0.2,0,0.3,0.1c0.1,0.1,0.1,0.2,0.1,0.4c0,0.2,0,0.3-0.1,0.4c-0.1,0.1-0.2,0.2-0.3,0.2h-2.2
																										c-0.2,0-0.4,0-0.6-0.1c-0.1-0.1-0.3-0.1-0.4-0.2c-0.1-0.1-0.2-0.2-0.2-0.3c0-0.1-0.1-0.3-0.1-0.4v-2.4
																										c0-0.1,0-0.3,0-0.4s0.1-0.3,0.2-0.4c0.1-0.1,0.2-0.2,0.4-0.3c0.2-0.1,0.4-0.1,0.6-0.1h2.1
																										c0.2,0,0.3,0,0.4,0.1c0.1,0.1,0.1,0.2,0.1,0.3c0,0.2,0,0.4-0.1,0.5c-0.1,0.1-0.2,0.1-0.4,0.1h-1.7
																										c-0.2,0-0.3,0.1-0.4,0.2c-0.1,0.1-0.1,0.2-0.1,0.4v1.4c0,0.4,0.2,0.6,0.5,0.6h1.9L241.2,177.7L241.2,177.7
																										z M245.1,180.1c0,0.2-0.1,0.3-0.2,0.4c-0.1,0.1-0.2,0.1-0.4,0.1c-0.1,0-0.3,0-0.4-0.1
																										c-0.1-0.1-0.2-0.2-0.2-0.3v-3.4c-0.1,0-0.2,0-0.3,0c-0.1,0-0.2,0-0.3,0v2.9c0,0.2-0.1,0.3-0.2,0.4
																										c-0.1,0.1-0.2,0.1-0.4,0.1c-0.1,0-0.3,0-0.4-0.1c-0.1-0.1-0.2-0.2-0.2-0.3v-5.9c-0.1-0.1-0.2-0.1-0.3-0.2
																										c-0.1-0.1-0.1-0.2-0.1-0.3c0-0.2,0.1-0.3,0.2-0.4c0.1-0.1,0.2-0.2,0.4-0.2c0.3,0,0.5,0.1,0.6,0.2
																										c0.2,0.2,0.3,0.4,0.3,0.6v2.1c0.1,0,0.2,0,0.3,0s0.2,0,0.3,0v-2.4c-0.1-0.1-0.2-0.1-0.3-0.2
																										s-0.1-0.2-0.1-0.3c0-0.2,0.1-0.3,0.2-0.4c0.1-0.1,0.2-0.2,0.4-0.2c0.3,0,0.5,0.1,0.6,0.2
																										c0.2,0.2,0.3,0.4,0.3,0.6v7.1L245.1,180.1L245.1,180.1z M234.4,180.3c0-0.3-0.1-0.5-0.3-0.7
																										c-0.2-0.2-0.4-0.3-0.7-0.3c-0.1,0-0.2,0-0.3,0c-0.1,0-0.2,0.1-0.3,0.1c-0.1,0.1-0.2,0.2-0.3,0.3
																										c-0.1,0.1-0.1,0.3-0.1,0.5c0,0.4,0.1,0.6,0.3,0.8c0.2,0.2,0.4,0.2,0.7,0.2s0.5-0.1,0.7-0.3
																										C234.3,180.8,234.4,180.6,234.4,180.3z M236.4,176c0.2,0,0.3,0,0.4,0.1c0.1,0.1,0.1,0.2,0.1,0.4
																										c0,0.1,0,0.3-0.1,0.4c-0.1,0.1-0.2,0.2-0.4,0.2h-6.2c-0.2,0-0.3-0.1-0.4-0.2s-0.1-0.2-0.1-0.4
																										c0-0.2,0-0.3,0.1-0.4c0.1-0.1,0.2-0.1,0.4-0.1h2.5v-0.6c0-0.2,0.1-0.3,0.2-0.4c0.1-0.1,0.3-0.1,0.4-0.1
																										c0.1,0,0.3,0,0.4,0.1c0.1,0.1,0.2,0.2,0.2,0.3v0.6L236.4,176L236.4,176z M235.2,173.5c0.1,0,0.2,0,0.3,0.1
																										c0.1,0.1,0.1,0.2,0.1,0.4s0,0.3-0.1,0.4c-0.1,0.1-0.2,0.2-0.3,0.2h-2.9c-0.2,0-0.4,0-0.6-0.1
																										c-0.1-0.1-0.3-0.1-0.4-0.2s-0.2-0.2-0.2-0.3c0-0.1-0.1-0.3-0.1-0.4v-2.1c0-0.1,0-0.3,0-0.4
																										s0.1-0.3,0.2-0.4c0.1-0.1,0.2-0.2,0.4-0.3c0.2-0.1,0.4-0.1,0.6-0.1h2.8c0.2,0,0.3,0,0.4,0.1
																										c0.1,0.1,0.1,0.2,0.1,0.3c0,0.2,0,0.4-0.1,0.5c-0.1,0.1-0.2,0.1-0.4,0.1h-2.4c-0.2,0-0.3,0.1-0.4,0.2
																										c-0.1,0.1-0.1,0.2-0.1,0.4v1c0,0.4,0.2,0.6,0.5,0.6H235.2z M235.3,180.5c0,0.4-0.1,0.6-0.2,0.9
																										c-0.1,0.2-0.3,0.4-0.5,0.6c-0.2,0.1-0.4,0.2-0.7,0.3c-0.2,0.1-0.5,0.1-0.7,0.1c-0.4,0-0.7-0.1-0.9-0.2
																										c-0.3-0.1-0.5-0.3-0.6-0.5c-0.2-0.2-0.3-0.4-0.3-0.6c-0.1-0.2-0.1-0.5-0.1-0.7c0-0.2,0-0.4,0.1-0.7
																										c0.1-0.2,0.2-0.5,0.3-0.7c0.2-0.2,0.4-0.4,0.6-0.5c0.3-0.1,0.6-0.2,1-0.2c0.3,0,0.6,0.1,0.8,0.2
																										c0.3,0.1,0.5,0.3,0.7,0.5c0.2,0.2,0.3,0.4,0.4,0.7C235.3,179.9,235.4,180.2,235.3,180.5z"/>
																								</defs>
																								<clipPath id="SVGID_20_">
																									<use xlink:href="#SVGID_19_"  style="overflow:visible;"/>
																								</clipPath>
																							</g>
																						</g>
																					</g>
																				</g>
																			</g>
																		</g>
																	</g>
																</g>
															</g>
														</g>
													</g>
												</g>
											</g>
										</g>
										<rect x="32.1" y="-281.7" class="st0" width="351.6" height="817"/>
										<rect x="36.4" y="-280.9" class="st0" width="351.6" height="817"/>
									</g>
								</g>
							</g>
						</g>
					</g>
				</g>
			</g>
			<path class="st2" d="M69,289.9"/>
			<path class="st11" d="M16.1,284.1c0,0,7.6-1.1,7.9,2.4c0.3,3.6,4,6.3,8,4.2c4-1.9,9.3-10.1,14.2-10.1s3.5,2.6,4,5.5
				c0.6,2.7,0.8,3.7,6.7,3.7s5.1,5.4,9.4-6.4l0.6-2.7v-18.7c0,0,5.9-4.4,6.7-8.9c0.8-4.5,0.3-5.7-1.2-11.6c-1.5-6-5.3-11.2-5.3-11.2
				"/>
			<path class="st11" d="M178.1,336.3c0,0-0.1,1.7-4.7,2.7s-7.5,1.7-13.9-5.1c-6.4-6.9,1.4-16.4-6.9-19.2c-8.2-2.8-8.7-4.1-8.7-4.1
				l-24.5,1.2c0,0-1.8,5.6-5.3,6c-3.4,0.4-13.5,5-15.4,6.7c-1.9,1.6-4.9-0.8-8.7-3c-3.9-2.2-2.4,4.5-9.8,3.7c-7.3-0.8-14.3,0-14.3,0
				"/>
			<path class="st2" d="M310.1,236.9l8.9,7.8l-4.2,13.2c0,0,9.4,7.4,10.6,15.9c0,0,4.7-0.8,6.3,1.9c1.6,2.6,10.5,0.5,10.5,0.5
				s-12,10.3-10.4,11.9c1.6,1.6,3.7,2.6,4.7,3.6c1,1,1.6,5.4,2.3,6.6c0.7,1.3-2.7,4.2,14.8,5.4c0,0,7.4,4.3-3.2,11.5
				c0,0-1.6,12-3,14.8c-1.3,2.8-8.1,3.9-8.8,5.9c-0.8,2.1-0.6,11.4-3.5,11.1s-7.2-2.1-8.5,5s-7.5,7.1-7.5,7.1l-42.6-47.7l-17.9,9.5
				l-7.3-44.7l11.2-13C262.6,263.2,305,261.6,310.1,236.9z"/>
			<path class="st11" d="M311.2,236.9c0,0,3.7,6,6.4,6.3c2.7,0.2-0.7,11-3.2,14.7c0,0,7.8,6.9,8.9,11.8c1.1,4.9,1.1,4.1,4.3,4.1
				c3.2,0,4.1,3.9,8,3.2c3.9-0.7,5.6,0.2,6.8-1.5"/>
			<path class="st4" d="M263.4,268.3c0,0-1.4,22.7,1.8,27.9c3.2,5.1,15.1,14.4,25.6,15.4c10.5,1,7.1,9.3,10.7,10.3s8.9,4.6,8.5,10.1
				c-0.5,5.5,6.3,15.3,11.5,27.1"/>
			<path class="st22" d="M52.2,183.8c0,0,6.4-5.4,18.3-7.4s-2.3-13.2,16-12.7s14.6-21.1,14.6-25.9s-2.3-9.3,3.2-20.6
				s-1.6-35.3,7.1-34.6s11.9,4.3,13.5,0c1.6-4.3,6.4-4.4,10.7-4.4c4.3,0,6.4-6.9,5.7-9.3c-0.7-2.4,6.4-3.4,13.9,7.4
				s10.2,5.8,10.8,15.2c0.7,9.5-5.1,14.1-4.5,14.9c0.6,0.8,11-0.1,11.8-0.7c0.7-0.6,7.8,0.6,8.6-5.2c0.8-5.9-1.7-35.1,1.6-36.9
				s6.7-25.6,11.8-28.7c5-3,13-3.2,13.5-5.4s-3.4-22.5,15.8-20.3s0.4,8.7,16.6,10.5c16.2,1.8,9.6,3.6,18.3,0.6
				c8.7-3,9.5-10.1,14.5-10.1c5,0.1,7.1,6.3,10.6,9.5s18.6-1.5,15,7.8c-3.8,9.3-10.3,9.5-1.2,18.8s-3.8,18.8-4.4,20.2
				c-0.6,1.4-3.9,16.2,5.4,20c9.2,3.8,11.3,1.7,11.4,5c0.1,3.3,0.4,8.9,2.6,11c2.2,2.1,1,12.1-4.2,12.6c-5.3,0.5-5.9,1.5-5.7,5
				s-1.1,7.7,6.2,8c7.4,0.3,5.4,5.6,7.4,7.8c2,2.2,4.4,7.4,0.5,10.7c-4,3.3-6,5.8-3.9,11.2c2.2,5.5-0.6,4.9-0.8,7.6
				c-0.2,1.7,0.7,0.9-2.6,9.4c-3.3,8.5-4.3,5.7-4.5,7.8c-0.2,2.1,4,2.4,3.4,4.6s0.5,5.4-3,8.4c-3.5,3.1-3.2,6.7-2.4,7.5
				c0.8,0.9,2.5,2.6,2.3,5c-0.3,2.4,1.4,7.6,7.6,5s2.1-13.7,23.5-14.1c21.4-0.5,34.5-18.9,34.5-18.9l3.1,4.3c0,0-0.7,5.2-3.9,8.2
				c-3.2,2.9,3.4,12.2,6.2,12.5c2.7,0.2,0.9,8.8-1.1,12.5c-2.1,3.6,0.9,14.2,3.9,17.2c3,2.9-9.4,13.1-29.7,13.9
				c0,0,2.3,18.7-11.9,31c-14.2,12.2-1.1,10.3-0.9,13s1.4,10.8,10.1,10.5c8.7-0.2,8.9,1.5,8.7,5.4s-6.4,6.2-6.6,7.9s0.5,15.2-5.7,17
				c-6.2,1.7-5.9,3.6-5.9,5.4c0,1.7,0.9,9.3-5.7,7.9c-6.6-1.5-4.3,8.1-8.2,11c-3.9,2.9-10.3,0-12.8,5.1c-2.5,5.1-6.6,6.2-13.3,5.7
				c-6.7-0.5-14.2,2.9-13.5,8.4c0.7,5.4-2.3,5.9-3.9,6.7c-1.6,0.7-2.1,4.4-2.1,6.4c0,1.9-6.4,3.9-8.5,3.4s-10.3,4.4-9.1,10.5
				c1.1,6.2-8.5,1.7-18.3,0c-9.8-1.7-11.9-8.6-10.1-11.8c1.8-3.2-9.1-12.7-4.6-22.1c4.5-9.4-6.4-18.2-11.6-13.2s-8.3,7.9-9.5,12.2
				s-11,3.2-10.6-1.1c0.3-4.4-4-15-11-5.6c-7,9.5-24.6,32.2-39.9,32.2s-20.9-0.3-21.4-7.2c-0.5-6.9-12-12.9-14.2,0.6
				c-2.2,13.5-21.2,8-22.4,0.8c-1.2-7.2-3.5-30.3-10.5-30.7c-7-0.5-2-10.8-4.9-17.2c-2.9-6.4-7.4-11.8-5.6-20.9
				c1.8-9.2-13.8-8.7-14,0.5s-12.2,22.9-19.4,22.5s-12.3-1.8-21.9,0.3c-9.6,2.1,4.2-13.5,4.6-16.6c0.3-2.9-1-10.6-4.7-15.2
				c-3.7-4.5,5.2-12.9,5.9-15.5c0.8-2.6,2.2-6.3-0.6-12.1s2.9-9.8,2.7-14.5c-0.2-4.7,5.8-28.6-5.6-30.4c-11.5-1.8-14,1.9-16.5,5.4
				c-2.4,3.4-7.6,7.9-9-3.2c-1.4-11.1-18.4-4.9-23-19.5c-4.6-14.5,3.4-3.6,5.5-11.3c2.2-7.7,2.3-13.2,12.6-18.3
				c10.3-5-2.9-8.4,6.1-16.9c9-8.5,3.4-16.9,3.2-20.3c-0.2-3.4,0.2-7.7,2.3-10.1c0,0,0.7-1.3,0.5-3.6l2.8-3.2
				c0,0,10.3-0.3,25.5,18.5s12.2,17.9,19.5,23.4C49.7,185.2,52.2,183.8,52.2,183.8z"/>
			<path class="st12" d="M-9,134.2c0,0,29.9,7.1,46.2,42.4c0,0,21,8.9,24,27.8c0,0,15.5,20.7,35.8,28.1c7.1,2.6,13.7,5.9,19.6,9.1
				c10.9,6.2,18.7,12.2,20.2,13.2c2.3,1.6,19.2,27.3,24.2,29c5.1,1.7,19,3.2,23.4-1.9c4.4-5.1,26.2-31.9,34-31.6
				c7.8,0.3,14.4-1.5,20.6,1.8c6.2,3.3,21,14.8,32,13.1c11-1.7,18-4.2,30.6-19.2c13.5-15.8,8.5-32.2,12.6-34.4s11.1-11,24.2-13.2
				c13-2.2,35.2-13.9,41.9-23.3"/>
		</g>
	</g>
	<path class="st11" d="M89.3,321.1c0,0,4.3-5.8-4.8-14c-9.1-8.2,3.6-9.3-11.5-13.4c0,0-8.1-2.7-11.2-2.7"/>
</g>
<rect x="-5.7" y="-275.6" class="st0" width="373.7" height="809.3"/>
<path class="st0" d="M167,247.9c0.2,0,0.4,0.1,0.6,0.2c0.1,0.1,0.2,0.4,0.2,0.7v2.8c0,0.4-0.2,0.6-0.6,0.6c-0.4,0-0.6-0.2-0.6-0.6
	v-2.2c0-0.3-0.1-0.4-0.4-0.4h-2.8c-0.1,0-0.2,0-0.4-0.1c-0.1-0.1-0.2-0.2-0.2-0.4s0-0.3,0.1-0.4c0.1-0.1,0.2-0.1,0.4-0.1h3.7V247.9z
	 M166.1,257c0,0.2-0.1,0.3-0.2,0.3c-0.1,0.1-0.3,0.1-0.4,0.1c-0.2,0-0.3,0-0.4-0.1c-0.1-0.1-0.2-0.2-0.2-0.4v-2.6h-2.7
	c-0.2,0-0.3-0.1-0.4-0.2c-0.1-0.1-0.1-0.2-0.1-0.4s0-0.3,0.1-0.4c0.1-0.1,0.2-0.1,0.4-0.1h6.5c0.2,0,0.3,0,0.4,0.1
	c0.1,0.1,0.1,0.2,0.1,0.4c0,0.1,0,0.3-0.1,0.4c-0.1,0.1-0.2,0.2-0.4,0.2H166L166.1,257L166.1,257z M155.4,257.9
	c-0.2,0-0.4-0.1-0.6-0.2c-0.1-0.1-0.2-0.4-0.2-0.7v-2.2c0-0.4,0.2-0.6,0.6-0.6c0.4,0,0.6,0.2,0.6,0.6v1.6c0,0.3,0.1,0.4,0.4,0.4h2.6
	c0.1,0,0.2,0,0.4,0.1c0.1,0.1,0.2,0.2,0.2,0.4c0,0.2,0,0.3-0.1,0.4s-0.2,0.1-0.4,0.1h-3.5V257.9z M159.4,253.2
	c0,0.2-0.1,0.3-0.2,0.4c-0.1,0.1-0.2,0.1-0.4,0.1c-0.1,0-0.3,0-0.4-0.1c-0.1-0.1-0.2-0.2-0.2-0.3v-4.8c-0.1-0.1-0.2-0.1-0.3-0.2
	c-0.1-0.1-0.1-0.2-0.1-0.3c0-0.2,0.1-0.3,0.2-0.4c0.1-0.1,0.2-0.2,0.4-0.2c0.3,0,0.5,0.1,0.6,0.2c0.2,0.2,0.3,0.4,0.3,0.6v2.1
	c0.2,0,0.4-0.1,0.6-0.1c0.2,0,0.4,0,0.6,0c0.1,0,0.2,0.1,0.2,0.2c0,0.1,0.1,0.2,0.1,0.3s0,0.2,0,0.3s-0.1,0.2-0.2,0.2
	c-0.1,0-0.3,0.1-0.5,0.1c-0.3,0-0.5,0-0.7,0L159.4,253.2L159.4,253.2z M156.7,252.3c0.1,0.1,0.1,0.3,0,0.5c0,0.2-0.1,0.3-0.3,0.3
	c-0.4,0.1-0.6,0-0.7-0.3l-0.7-1.7c-0.1-0.1-0.1-0.2-0.2-0.2c-0.1,0-0.1,0-0.1,0.1c0,0-0.1,0.1-0.1,0.2l-0.7,1.6
	c-0.1,0.1-0.2,0.2-0.3,0.3c-0.2,0-0.3,0-0.4,0c-0.2-0.1-0.3-0.2-0.3-0.3s0-0.3,0.1-0.5l1.5-3.3c0-0.1,0.1-0.1,0.1-0.2
	c0.1-0.1,0.2-0.1,0.3-0.1s0.2,0,0.3,0.1c0.1,0,0.1,0.1,0.2,0.2L156.7,252.3z M148.8,256.4c0-0.3-0.1-0.5-0.3-0.7s-0.4-0.3-0.7-0.3
	c-0.1,0-0.2,0-0.3,0s-0.2,0.1-0.3,0.1c-0.1,0.1-0.2,0.2-0.3,0.3s-0.1,0.3-0.1,0.5c0,0.4,0.1,0.6,0.3,0.8c0.2,0.2,0.4,0.2,0.7,0.2
	s0.5-0.1,0.7-0.3C148.7,257,148.8,256.7,148.8,256.4z M149,248.8c0-0.3-0.1-0.6-0.3-0.8s-0.5-0.3-0.8-0.3c-0.1,0-0.2,0-0.3,0
	s-0.3,0.1-0.4,0.2c-0.1,0.1-0.2,0.2-0.3,0.3s-0.1,0.3-0.1,0.6c0,0.4,0.1,0.7,0.4,0.8c0.2,0.2,0.5,0.2,0.8,0.2c0.4,0,0.6-0.1,0.9-0.3
	C148.9,249.4,149,249.2,149,248.8z M151,252.3c0.2,0,0.3,0,0.4,0.1c0.1,0.1,0.1,0.2,0.1,0.4c0,0.1,0,0.3-0.1,0.4
	c-0.1,0.1-0.2,0.2-0.4,0.2h-6.6c-0.2,0-0.3-0.1-0.4-0.2c-0.1-0.1-0.1-0.2-0.1-0.4s0-0.3,0.1-0.4c0.1-0.1,0.2-0.1,0.4-0.1h1.4v-0.6
	c0-0.2,0.1-0.3,0.2-0.4c0.1-0.1,0.2-0.1,0.4-0.1c0.1,0,0.3,0,0.4,0.1c0.1,0.1,0.2,0.2,0.2,0.3v0.6h1.4v-0.6c0-0.2,0.1-0.3,0.2-0.4
	c0.1-0.1,0.2-0.1,0.4-0.1c0.1,0,0.3,0,0.4,0.1c0.1,0.1,0.2,0.2,0.2,0.3v0.6h1.4L151,252.3L151,252.3z M149.9,256.6
	c0,0.4-0.1,0.6-0.2,0.9c-0.1,0.2-0.3,0.4-0.5,0.6c-0.2,0.1-0.4,0.2-0.7,0.3c-0.2,0.1-0.5,0.1-0.7,0.1c-0.4,0-0.7-0.1-1-0.2
	s-0.5-0.3-0.6-0.5c-0.2-0.2-0.3-0.4-0.3-0.6c-0.1-0.2-0.1-0.5-0.1-0.7s0-0.4,0.1-0.7c0.1-0.2,0.2-0.5,0.3-0.7
	c0.2-0.2,0.4-0.4,0.6-0.5c0.3-0.1,0.6-0.2,1.1-0.2c0.3,0,0.6,0.1,0.9,0.2c0.3,0.1,0.5,0.3,0.7,0.5s0.3,0.4,0.4,0.7
	C149.9,256,149.9,256.3,149.9,256.6z M150.1,249c0,0.4-0.1,0.7-0.2,0.9c-0.1,0.2-0.3,0.4-0.6,0.6c-0.2,0.1-0.5,0.3-0.7,0.3
	c-0.3,0.1-0.5,0.1-0.8,0.1c-0.4,0-0.8-0.1-1.1-0.2c-0.3-0.1-0.5-0.3-0.7-0.5s-0.3-0.4-0.4-0.6c-0.1-0.2-0.1-0.5-0.1-0.7
	s0-0.4,0.1-0.6c0.1-0.2,0.2-0.5,0.3-0.7s0.3-0.4,0.6-0.6c0.2-0.2,0.6-0.3,0.9-0.3c0-0.2,0.1-0.4,0.1-0.4c0.1-0.1,0.2-0.1,0.3-0.1
	s0.2,0,0.3,0.1s0.1,0.2,0.1,0.5c0.6,0.1,1.1,0.3,1.4,0.7C149.9,247.9,150.1,248.4,150.1,249z"/>
</svg>
